<svg width="200" height="200" viewBox="0 0 200 200" fill="none" xmlns="http://www.w3.org/2000/svg">
<rect width="200" height="200" fill="white"/>
<path d="M182.185 116.677C182.2 128.061 179.836 139.322 175.246 149.739H24.7539C19.8376 138.546 17.4803 126.397 17.8538 114.178C18.2272 101.959 21.322 89.9765 26.9127 79.1047C32.5033 68.2329 40.4489 58.7452 50.1706 51.3331C59.8923 43.9209 71.1451 38.7709 83.1092 36.2584C95.0732 33.7458 107.447 33.934 119.329 36.8093C131.211 39.6845 142.302 45.1743 151.794 52.8787C161.286 60.5831 168.939 70.308 174.197 81.3448C179.454 92.3816 182.183 104.452 182.185 116.677Z" fill="#F2F2F2"/>
<path d="M7.04614 149.738H192.954" stroke="#63666A" stroke-width="1.5" stroke-miterlimit="10" stroke-linecap="round"/>
<path d="M116.556 54.492L48.6257 64.6928C46.878 64.9552 45.6739 66.5848 45.9364 68.3325L59.836 160.895C60.0984 162.642 61.728 163.846 63.4757 163.584L131.406 153.383C133.154 153.121 134.358 151.491 134.096 149.744L120.196 57.1813C119.934 55.4336 118.304 54.2295 116.556 54.492Z" fill="#D7D7D7" stroke="#63666A" stroke-width="1.5" stroke-linecap="round" stroke-linejoin="round"/>
<path d="M145.677 145.493V171.309C145.677 171.717 145.515 172.108 145.226 172.396C144.938 172.685 144.546 172.847 144.138 172.847H73.6154C73.2073 172.847 72.816 172.685 72.5275 172.396C72.239 172.108 72.0769 171.717 72.0769 171.309V74.8471C72.0769 74.439 72.239 74.0477 72.5275 73.7592C72.816 73.4707 73.2073 73.3086 73.6154 73.3086H127.785L145.677 91.1547V131.37" fill="white"/>
<path d="M145.677 145.493V171.309C145.677 171.717 145.515 172.108 145.226 172.396C144.938 172.685 144.546 172.847 144.138 172.847H73.6154C73.2073 172.847 72.816 172.685 72.5275 172.396C72.239 172.108 72.0769 171.717 72.0769 171.309V74.8471C72.0769 74.439 72.239 74.0477 72.5275 73.7592C72.816 73.4707 73.2073 73.3086 73.6154 73.3086H127.785L145.677 91.1547V131.37" stroke="#63666A" stroke-width="1.5" stroke-linecap="round" stroke-linejoin="round"/>
<path d="M145.677 91.1543H127.785V73.2773L145.677 91.1543Z" fill="#A7A7A7" stroke="#63666A" stroke-width="1.5" stroke-linecap="round" stroke-linejoin="round"/>
</svg>
