<svg width="1440" height="320" viewBox="0 0 1440 320" fill="none" xmlns="http://www.w3.org/2000/svg">
	<path d="M1440 0H0V320H1440V0Z" fill="#F2F2F2"/>
	<path fill-rule="evenodd" clip-rule="evenodd" d="M729 165C729.552 165 730 165.448 730 166V169.3C730 169.852 729.552 170.3 729 170.3C728.448 170.3 728 169.852 728 169.3V166C728 165.448 728.448 165 729 165Z" fill="#CCCCCC"/>
	<path fill-rule="evenodd" clip-rule="evenodd" d="M705 146C705 145.448 705.448 145 706 145H733C733.552 145 734 145.448 734 146V160.5C734 161.052 733.552 161.5 733 161.5C732.448 161.5 732 161.052 732 160.5V147H707V172H720.5C721.052 172 721.5 172.448 721.5 173C721.5 173.552 721.052 174 720.5 174H706C705.448 174 705 173.552 705 173V146Z" fill="#CCCCCC"/>
	<path fill-rule="evenodd" clip-rule="evenodd" d="M729 164C726.239 164 724 166.239 724 169C724 171.761 726.239 174 729 174C731.761 174 734 171.761 734 169C734 166.239 731.761 164 729 164ZM722 169C722 165.134 725.134 162 729 162C732.866 162 736 165.134 736 169C736 172.866 732.866 176 729 176C725.134 176 722 172.866 722 169Z" fill="#CCCCCC"/>
	<path fill-rule="evenodd" clip-rule="evenodd" d="M714.5 151C713.672 151 713 151.672 713 152.5C713 153.328 713.672 154 714.5 154C715.328 154 716 153.328 716 152.5C716 151.672 715.328 151 714.5 151ZM711 152.5C711 150.567 712.567 149 714.5 149C716.433 149 718 150.567 718 152.5C718 154.433 716.433 156 714.5 156C712.567 156 711 154.433 711 152.5Z" fill="#CCCCCC"/>
	<path fill-rule="evenodd" clip-rule="evenodd" d="M728.707 153.793C729.098 154.183 729.098 154.817 728.707 155.207L719.707 164.207C719.317 164.598 718.683 164.598 718.293 164.207L714.5 160.414L709.707 165.207C709.317 165.598 708.683 165.598 708.293 165.207C707.902 164.817 707.902 164.183 708.293 163.793L713.793 158.293C714.183 157.902 714.817 157.902 715.207 158.293L719 162.086L727.293 153.793C727.683 153.402 728.317 153.402 728.707 153.793Z" fill="#CCCCCC"/>
	<path d="M730 172C730 172.552 729.552 173 729 173C728.448 173 728 172.552 728 172C728 171.448 728.448 171 729 171C729.552 171 730 171.448 730 172Z" fill="#CCCCCC"/>
</svg>