<svg width="240" height="240" viewBox="0 0 240 240" fill="none" xmlns="http://www.w3.org/2000/svg">
<rect width="240" height="240" fill="white"/>
<path d="M218.622 140.012C218.64 153.672 215.804 167.186 210.295 179.686H29.7046C23.8051 166.255 20.9763 151.676 21.4245 137.013C21.8726 122.35 25.5863 107.971 32.2951 94.9251C39.0039 81.8789 48.5386 70.4938 60.2046 61.5991C71.8706 52.7045 85.374 46.5246 99.7309 43.5095C114.088 40.4945 128.936 40.7203 143.195 44.1706C157.453 47.6209 170.763 54.2087 182.153 63.454C193.543 72.6992 202.727 84.3691 209.036 97.6133C215.345 110.857 218.62 125.342 218.622 140.012Z" fill="#F2F2F2"/>
<path d="M8.45557 179.686H231.545" stroke="#63666A" stroke-width="1.5" stroke-miterlimit="10" stroke-linecap="round"/>
<path d="M190.745 93.4893V179.686H129.969V92.1601L159.655 62.4554L189.342 92.1601L190.745 93.4893Z" fill="white" stroke="#63666A" stroke-width="1.5" stroke-linecap="round" stroke-linejoin="round"/>
<path d="M174.259 134.16V177.822H146.456V134.16C146.456 133.67 146.65 133.201 146.996 132.855C147.343 132.508 147.812 132.314 148.302 132.314H172.412C172.902 132.314 173.372 132.508 173.718 132.855C174.064 133.201 174.259 133.67 174.259 134.16Z" fill="#D7D7D7"/>
<path d="M129.969 92.16H74.271V179.686H129.969V92.16Z" fill="#D7D7D7" stroke="#63666A" stroke-width="1.5" stroke-linecap="round" stroke-linejoin="round"/>
<path d="M159.656 62.4554L129.969 92.1601H74.271L103.957 62.4554H159.656Z" fill="#A7A7A7" stroke="#63666A" stroke-width="1.5" stroke-linecap="round" stroke-linejoin="round"/>
<path d="M107.299 177.822H71.6309V101.354C81.0691 99.7813 90.7626 101.343 99.2291 105.801C107.696 110.259 114.469 117.367 118.514 126.038C122.558 134.709 123.652 144.467 121.626 153.818C119.601 163.17 114.569 171.601 107.299 177.822Z" fill="#A7A7A7"/>
<path d="M72.9048 182.622C95.5094 182.622 113.834 164.297 113.834 141.692C113.834 119.088 95.5094 100.763 72.9048 100.763C50.3002 100.763 31.9756 119.088 31.9756 141.692C31.9756 164.297 50.3002 182.622 72.9048 182.622Z" fill="#D7D7D7" stroke="#63666A" stroke-width="1.5" stroke-miterlimit="10"/>
<path d="M72.9045 173.206C90.3091 173.206 104.418 159.097 104.418 141.692C104.418 124.288 90.3091 110.178 72.9045 110.178C55.4999 110.178 41.3906 124.288 41.3906 141.692C41.3906 159.097 55.4999 173.206 72.9045 173.206Z" fill="white"/>
<path d="M72.9045 173.206C90.3091 173.206 104.418 159.097 104.418 141.692C104.418 124.288 90.3091 110.178 72.9045 110.178C55.4999 110.178 41.3906 124.288 41.3906 141.692C41.3906 159.097 55.4999 173.206 72.9045 173.206Z" stroke="#63666A" stroke-width="1.5" stroke-linecap="round" stroke-linejoin="round" stroke-dasharray="3 3"/>
<path d="M62.9352 126.259C62.6582 125.815 62.769 125.428 63.2121 125.04C66.0536 122.875 69.5171 121.684 73.089 121.643C75.8885 121.514 78.6328 122.451 80.769 124.265C81.7308 125.111 82.4905 126.163 82.9922 127.342C83.4938 128.52 83.7246 129.797 83.6675 131.077C83.5999 133.704 82.5453 136.208 80.7136 138.092C78.369 140.548 75.3044 143.28 75.3044 147.563V149.299C75.3044 150.019 75.0275 150.351 74.4736 150.351H69.9136C69.3967 150.351 69.1198 150.019 69.1198 149.299V147.563C69.0111 144.498 70.0366 141.501 71.9998 139.145C74.3998 136.634 77.2982 134.843 77.2982 131.945C77.2912 131.361 77.1625 130.786 76.9202 130.255C76.6779 129.724 76.3274 129.25 75.8912 128.862C75.455 128.475 74.9426 128.182 74.387 128.004C73.8313 127.826 73.2446 127.766 72.6644 127.828C70.4333 127.969 68.3082 128.83 66.609 130.283C66.0921 130.615 65.7044 130.56 65.4275 130.062L62.9352 126.259ZM75.9875 157.975C75.9874 158.725 75.7657 159.458 75.3502 160.082C74.9347 160.707 74.344 161.194 73.6523 161.483C72.9606 161.773 72.1987 161.851 71.4626 161.709C70.7264 161.567 70.0487 161.21 69.5147 160.684C68.9807 160.157 68.6142 159.485 68.4613 158.751C68.3083 158.017 68.3758 157.254 68.6552 156.558C68.9345 155.862 69.4133 155.265 70.0314 154.84C70.6495 154.416 71.3793 154.183 72.129 154.172C72.6371 154.149 73.1446 154.231 73.6195 154.414C74.0944 154.596 74.5266 154.874 74.8889 155.231C75.2511 155.588 75.5357 156.016 75.7248 156.489C75.9138 156.961 76.0033 157.467 75.9875 157.975Z" fill="#63666A"/>
<path d="M90.7959 178.653L97.3218 174.71L105.628 188.458C105.881 188.877 105.957 189.379 105.84 189.855C105.723 190.33 105.421 190.739 105.002 190.992L101.637 193.026C101.218 193.279 100.715 193.355 100.24 193.238C99.7643 193.121 99.355 192.82 99.1018 192.4L90.7959 178.653Z" fill="#D7D7D7" stroke="#63666A" stroke-width="1.5" stroke-miterlimit="10"/>
<path d="M98.4859 194.98L108.283 189.061C108.702 188.808 109.204 188.731 109.68 188.849C110.155 188.966 110.564 189.267 110.818 189.686L128.47 218.903C129.513 220.63 129.828 222.7 129.345 224.658C128.861 226.617 127.62 228.303 125.893 229.346C124.165 230.368 122.103 230.665 120.156 230.172C118.21 229.679 116.537 228.437 115.503 226.716L97.8605 197.515C97.6073 197.096 97.5309 196.593 97.6482 196.118C97.7655 195.642 98.0668 195.233 98.4859 194.98Z" fill="#D7D7D7" stroke="#63666A" stroke-width="1.5" stroke-miterlimit="10"/>
</svg>
