<svg width="127" height="106" viewBox="0 0 127 106" fill="none" xmlns="http://www.w3.org/2000/svg"><path d="M22.5752 85.6048C23.2296 85.605 23.8776 85.4763 24.4822 85.226C25.0868 84.9758 25.6362 84.6089 26.099 84.1462C26.5618 83.6836 26.9289 83.1343 27.1794 82.5298C27.4299 81.9252 27.5588 81.2773 27.5588 80.6229V15.4149C27.5586 14.8939 27.661 14.378 27.8602 13.8966C28.0594 13.4153 28.3515 12.9779 28.7198 12.6094C29.0881 12.241 29.5254 11.9487 30.0066 11.7493C30.4879 11.5498 31.0038 11.4472 31.5247 11.4472H121.061C122.113 11.4477 123.122 11.8659 123.866 12.6099C124.61 13.354 125.027 14.3629 125.027 15.4149V79.2489C125.027 80.9346 124.358 82.5512 123.166 83.7432C121.974 84.9352 120.357 85.6048 118.671 85.6048H22.5752Z" fill="white" stroke="#999999" stroke-width="2" stroke-linecap="round" stroke-linejoin="round"></path><path d="M22.5751 85.6049C23.2294 85.6051 23.8775 85.4764 24.4821 85.2262C25.0867 84.9759 25.6361 84.609 26.0989 84.1463C26.5617 83.6837 26.9288 83.1344 27.1793 82.5299C27.4297 81.9253 27.5587 81.2774 27.5587 80.623V20.0405L3.81939 27.2187C3.31175 27.372 2.84001 27.6255 2.43207 27.9643C2.02413 28.3031 1.68828 28.7203 1.44438 29.1912C1.20049 29.662 1.05349 30.177 1.0121 30.7057C0.970708 31.2344 1.03576 31.766 1.2034 32.2691L17.8485 82.2008C18.1795 83.1924 18.8142 84.0547 19.6624 84.6656C20.5107 85.2765 21.5297 85.6051 22.5751 85.6049Z" fill="#CCCCCC" stroke="#999999" stroke-width="2" stroke-linecap="round" stroke-linejoin="round"></path><path d="M94.204 11.4438L92.1671 4.65798C92.0174 4.15834 91.7707 3.69313 91.441 3.28902C91.1112 2.8849 90.705 2.54983 90.2455 2.30299C89.7861 2.05615 89.2824 1.90241 88.7635 1.85057C88.2445 1.79872 87.7204 1.8498 87.2212 2.00087L55.9834 11.4438H94.204Z" fill="#CCCCCC" stroke="#999999" stroke-width="2" stroke-linecap="round" stroke-linejoin="round"></path><path d="M38.1528 36.8705H114.433" stroke="#999999" stroke-width="2" stroke-linecap="round" stroke-linejoin="round"></path><path d="M57.222 47.4648H40.272C39.1016 47.4648 38.1528 48.4136 38.1528 49.584V70.7723C38.1528 71.9427 39.1016 72.8915 40.272 72.8915H57.222C58.3924 72.8915 59.3412 71.9427 59.3412 70.7723V49.584C59.3412 48.4136 58.3924 47.4648 57.222 47.4648Z" fill="#CCCCCC" stroke="#999999" stroke-width="2" stroke-linecap="round" stroke-linejoin="round"></path><path d="M59.3415 63.8237V70.774C59.3415 71.3356 59.1184 71.8742 58.7213 72.2713C58.3242 72.6684 57.7856 72.8915 57.224 72.8915H40.2637C39.9855 72.8917 39.71 72.8371 39.4529 72.7308C39.1958 72.6245 38.9621 72.4686 38.7653 72.2719C38.5685 72.0753 38.4124 71.8418 38.3059 71.5847C38.1994 71.3277 38.1445 71.0522 38.1445 70.774V61.6189C42.39 61.1071 46.6921 61.339 50.8579 62.3042C53.6519 62.9843 56.4851 63.4918 59.3415 63.8237Z" fill="white" stroke="#999999" stroke-width="2" stroke-linecap="round" stroke-linejoin="round"></path><path d="M82.6489 47.4648H114.433" stroke="#999999" stroke-width="2" stroke-linecap="round" stroke-linejoin="round"></path><path d="M69.9355 55.9415H114.433" stroke="#999999" stroke-width="2" stroke-linecap="round" stroke-linejoin="round"></path><path d="M69.9355 64.4164H114.433" stroke="#999999" stroke-width="2" stroke-linecap="round" stroke-linejoin="round"></path><path d="M69.9355 72.8915H101.72" stroke="#999999" stroke-width="2" stroke-linecap="round" stroke-linejoin="round"></path><path d="M69.5122 106C81.5605 106 91.3275 104.669 91.3275 103.026C91.3275 101.383 81.5605 100.052 69.5122 100.052C57.4639 100.052 47.6968 101.383 47.6968 103.026C47.6968 104.669 57.4639 106 69.5122 106Z" fill="#CCCCCC"></path><path d="M53.7986 24.5896C54.0815 24.5896 54.309 24.6757 54.4812 24.8479C54.6534 25.0078 54.7395 25.223 54.7395 25.4936V29.4602C54.7395 30.026 54.6657 30.4257 54.5181 30.6594C54.3705 30.8931 54.0692 31.0838 53.6141 31.2314C53.1221 31.4036 52.5502 31.5389 51.8983 31.6373C51.2464 31.7357 50.6191 31.7849 50.0164 31.7849C48.6758 31.7849 47.5135 31.5204 46.5295 30.9915C45.5455 30.4626 44.7891 29.7001 44.2602 28.7038C43.7436 27.6952 43.4854 26.496 43.4854 25.1062C43.4854 23.7409 43.7436 22.5601 44.2602 21.5639C44.7891 20.5553 45.5332 19.7866 46.4926 19.2577C47.452 18.7165 48.5835 18.4459 49.8873 18.4459C51.6215 18.4459 53.0421 18.9133 54.1491 19.8481C54.2967 19.9834 54.4013 20.1187 54.4628 20.254C54.5366 20.3893 54.5735 20.5492 54.5735 20.7337C54.5735 21.0042 54.4997 21.2318 54.3521 21.4163C54.2045 21.6008 54.0261 21.693 53.817 21.693C53.6817 21.693 53.5587 21.6746 53.448 21.6377C53.3373 21.5885 53.2082 21.5147 53.0606 21.4163C52.5194 21.035 52.0151 20.7705 51.5477 20.623C51.0804 20.4631 50.5515 20.3831 49.9611 20.3831C48.6204 20.3831 47.6057 20.7828 46.9169 21.5823C46.2405 22.3695 45.9022 23.5441 45.9022 25.1062C45.9022 28.3041 47.3044 29.903 50.1087 29.903C50.9451 29.903 51.7814 29.7862 52.6178 29.5525V26.2869H50.533C50.2378 26.2869 50.0041 26.2131 49.832 26.0655C49.6721 25.9179 49.5921 25.7088 49.5921 25.4383C49.5921 25.1677 49.6721 24.9586 49.832 24.811C50.0041 24.6634 50.2378 24.5896 50.533 24.5896H53.7986Z" fill="#999999"></path><path d="M62.7908 31.7849C61.0073 31.7849 59.6544 31.3236 58.7319 30.4011C57.8095 29.4787 57.3482 28.1319 57.3482 26.3607V19.7005C57.3482 19.3438 57.4528 19.0609 57.6619 18.8518C57.8709 18.6304 58.1538 18.5197 58.5105 18.5197C58.8672 18.5197 59.1501 18.6304 59.3592 18.8518C59.5683 19.0609 59.6728 19.3438 59.6728 19.7005V26.4899C59.6728 27.6091 59.9373 28.4578 60.4662 29.0359C60.9951 29.6017 61.7699 29.8846 62.7908 29.8846C63.7994 29.8846 64.5681 29.5955 65.097 29.0174C65.6259 28.4394 65.8903 27.5968 65.8903 26.4899V19.7005C65.8903 19.3438 65.9948 19.0609 66.2039 18.8518C66.413 18.6304 66.6959 18.5197 67.0526 18.5197C67.4093 18.5197 67.6922 18.6304 67.9013 18.8518C68.1104 19.0609 68.2149 19.3438 68.2149 19.7005V26.3607C68.2149 28.1196 67.7537 29.4664 66.8312 30.4011C65.9087 31.3236 64.5619 31.7849 62.7908 31.7849Z" fill="#999999"></path><path d="M72.1336 31.7295C71.7769 31.7295 71.4878 31.6188 71.2664 31.3974C71.0573 31.176 70.9528 30.887 70.9528 30.5303V19.7005C70.9528 19.3438 71.0573 19.0609 71.2664 18.8518C71.4878 18.6304 71.7769 18.5197 72.1336 18.5197C72.5025 18.5197 72.7916 18.6304 73.0007 18.8518C73.2221 19.0609 73.3328 19.3438 73.3328 19.7005V30.5303C73.3328 30.887 73.2221 31.176 73.0007 31.3974C72.7916 31.6188 72.5025 31.7295 72.1336 31.7295Z" fill="#999999"></path><path d="M77.2855 31.6188C76.9289 31.6188 76.646 31.5204 76.4369 31.3236C76.2401 31.1268 76.1417 30.8501 76.1417 30.4934V19.7374C76.1417 19.3807 76.2401 19.104 76.4369 18.9072C76.646 18.7104 76.9289 18.612 77.2855 18.612H80.9385C83.0664 18.612 84.7145 19.1839 85.883 20.3278C87.0637 21.4593 87.6541 23.0521 87.6541 25.1062C87.6541 27.1725 87.0637 28.7776 85.883 29.9215C84.7145 31.053 83.0664 31.6188 80.9385 31.6188H77.2855ZM80.7909 29.6816C83.7797 29.6816 85.2741 28.1565 85.2741 25.1062C85.2741 22.0682 83.7797 20.5492 80.7909 20.5492H78.5217V29.6816H80.7909Z" fill="#999999"></path><path d="M91.1947 31.6188C90.838 31.6188 90.5551 31.5204 90.346 31.3236C90.1492 31.1268 90.0508 30.8501 90.0508 30.4934V19.7374C90.0508 19.3807 90.1492 19.104 90.346 18.9072C90.5551 18.7104 90.838 18.612 91.1947 18.612H97.8549C98.2116 18.612 98.4884 18.6919 98.6851 18.8518C98.8819 19.0117 98.9803 19.2392 98.9803 19.5344C98.9803 19.8419 98.8819 20.0818 98.6851 20.254C98.4884 20.4139 98.2116 20.4938 97.8549 20.4938H92.3754V24.073H97.4859C97.8426 24.073 98.1194 24.1529 98.3162 24.3128C98.513 24.4727 98.6113 24.7064 98.6113 25.0139C98.6113 25.3091 98.513 25.5366 98.3162 25.6965C98.1194 25.8564 97.8426 25.9364 97.4859 25.9364H92.3754V29.737H97.8549C98.2116 29.737 98.4884 29.8231 98.6851 29.9953C98.8819 30.1552 98.9803 30.3888 98.9803 30.6963C98.9803 30.9915 98.8819 31.2191 98.6851 31.379C98.4884 31.5389 98.2116 31.6188 97.8549 31.6188H91.1947Z" fill="#999999"></path><path d="M105.237 31.7849C104.289 31.7849 103.392 31.6619 102.543 31.4159C101.707 31.1576 101.024 30.8132 100.495 30.3827C100.212 30.1736 100.071 29.8784 100.071 29.4971C100.071 29.2388 100.145 29.0174 100.292 28.8329C100.452 28.6362 100.637 28.5378 100.846 28.5378C101.067 28.5378 101.319 28.6239 101.602 28.796C102.131 29.1773 102.684 29.4541 103.262 29.6263C103.841 29.7985 104.48 29.8846 105.181 29.8846C106.079 29.8846 106.768 29.7308 107.248 29.4233C107.727 29.1035 107.967 28.6423 107.967 28.0396C107.967 27.5722 107.74 27.2155 107.284 26.9696C106.842 26.7113 106.098 26.4653 105.052 26.2316C103.97 25.9979 103.09 25.7273 102.414 25.4198C101.737 25.1123 101.227 24.7187 100.882 24.239C100.538 23.7594 100.366 23.1505 100.366 22.4125C100.366 21.65 100.581 20.9673 101.012 20.3647C101.442 19.762 102.039 19.2946 102.801 18.9625C103.576 18.6181 104.443 18.4459 105.403 18.4459C107.161 18.4459 108.594 18.9133 109.701 19.8481C109.861 19.9834 109.972 20.1187 110.033 20.254C110.107 20.377 110.144 20.5369 110.144 20.7337C110.144 20.9919 110.064 21.2195 109.904 21.4163C109.757 21.6008 109.578 21.693 109.369 21.693C109.246 21.693 109.129 21.6746 109.019 21.6377C108.92 21.6008 108.785 21.5331 108.613 21.4347C108.109 21.0657 107.617 20.7951 107.137 20.623C106.669 20.4385 106.091 20.3462 105.403 20.3462C104.566 20.3462 103.902 20.5184 103.41 20.8628C102.93 21.1949 102.691 21.6623 102.691 22.265C102.691 22.7692 102.906 23.1567 103.336 23.4273C103.767 23.6979 104.499 23.95 105.532 24.1837C106.626 24.4297 107.512 24.7064 108.188 25.0139C108.877 25.3091 109.4 25.6904 109.757 26.1578C110.126 26.6252 110.31 27.2094 110.31 27.9105C110.31 28.673 110.095 29.3495 109.664 29.9399C109.246 30.518 108.65 30.9731 107.875 31.3052C107.112 31.625 106.233 31.7849 105.237 31.7849Z" fill="#999999"></path></svg>